<svg width="50" height="50" viewBox="0 0 50 50" fill="none" xmlns="http://www.w3.org/2000/svg">
<path d="M20.229 13.1042C20.0354 12.9089 19.8049 12.7539 19.5511 12.6481C19.2972 12.5424 19.0249 12.4879 18.7499 12.4879C18.4748 12.4879 18.2025 12.5424 17.9487 12.6481C17.6948 12.7539 17.4644 12.9089 17.2707 13.1042L6.85404 23.5208C6.65877 23.7145 6.50378 23.9449 6.39802 24.1988C6.29225 24.4527 6.23779 24.725 6.23779 25C6.23779 25.275 6.29225 25.5473 6.39802 25.8012C6.50378 26.0551 6.65877 26.2855 6.85404 26.4792L17.2707 36.8958C17.4644 37.0911 17.6948 37.2461 17.9487 37.3519C18.2025 37.4576 18.4748 37.5121 18.7499 37.5121C19.0249 37.5121 19.2972 37.4576 19.5511 37.3519C19.8049 37.2461 20.0354 37.0911 20.229 36.8958C20.4243 36.7022 20.5793 36.4717 20.6851 36.2179C20.7908 35.964 20.8453 35.6917 20.8453 35.4167C20.8453 35.1416 20.7908 34.8693 20.6851 34.6155C20.5793 34.3616 20.4243 34.1312 20.229 33.9375L11.2707 25L20.229 16.0625C20.4243 15.8688 20.5793 15.6384 20.6851 15.3845C20.7908 15.1307 20.8453 14.8584 20.8453 14.5833C20.8453 14.3083 20.7908 14.036 20.6851 13.7821C20.5793 13.5283 20.4243 13.2978 20.229 13.1042ZM43.1457 23.5208L32.729 13.1042C32.5348 12.9099 32.3042 12.7558 32.0504 12.6507C31.7966 12.5456 31.5246 12.4915 31.2499 12.4915C30.6951 12.4915 30.163 12.7119 29.7707 13.1042C29.5765 13.2984 29.4224 13.529 29.3172 13.7828C29.2121 14.0366 29.158 14.3086 29.158 14.5833C29.158 15.1381 29.3784 15.6702 29.7707 16.0625L38.729 25L29.7707 33.9375C29.5754 34.1312 29.4205 34.3616 29.3147 34.6155C29.2089 34.8693 29.1545 35.1416 29.1545 35.4167C29.1545 35.6917 29.2089 35.964 29.3147 36.2179C29.4205 36.4717 29.5754 36.7022 29.7707 36.8958C29.9644 37.0911 30.1948 37.2461 30.4487 37.3519C30.7025 37.4576 30.9748 37.5121 31.2499 37.5121C31.5249 37.5121 31.7972 37.4576 32.0511 37.3519C32.3049 37.2461 32.5354 37.0911 32.729 36.8958L43.1457 26.4792C43.341 26.2855 43.496 26.0551 43.6017 25.8012C43.7075 25.5473 43.762 25.275 43.762 25C43.762 24.725 43.7075 24.4527 43.6017 24.1988C43.496 23.9449 43.341 23.7145 43.1457 23.5208Z" fill="#0BB453"/>
</svg>
