<svg width="34" height="34" viewBox="0 0 34 34" fill="none" xmlns="http://www.w3.org/2000/svg">
<path d="M31.8333 16.2788H31.54L28.5017 7.39043L2.42333 16.2788L1.83333 16.2738M1 16.2804H1.83333L20.41 1.44043L25.105 8.02376" stroke="#0BB453" stroke-width="2" stroke-linecap="square"/>
<path d="M21.0003 24.6071C21.0003 25.7122 20.5613 26.772 19.7799 27.5534C18.9985 28.3348 17.9387 28.7738 16.8337 28.7738C15.7286 28.7738 14.6688 28.3348 13.8874 27.5534C13.106 26.772 12.667 25.7122 12.667 24.6071C12.667 23.502 13.106 22.4422 13.8874 21.6608C14.6688 20.8794 15.7286 20.4404 16.8337 20.4404C17.9387 20.4404 18.9985 20.8794 19.7799 21.6608C20.5613 22.4422 21.0003 23.502 21.0003 24.6071Z" stroke="#0BB453" stroke-width="2" stroke-linecap="square"/>
<path d="M32.6667 16.2737V32.9403H1V16.2737H32.6667Z" stroke="#0BB453" stroke-width="2" stroke-linecap="square"/>
<path d="M1 16.2737H4.33333C4.33333 17.1577 3.98214 18.0056 3.35702 18.6307C2.7319 19.2558 1.88405 19.607 1 19.607V16.2737ZM32.6667 16.2737H29.3333C29.3333 17.1577 29.6845 18.0056 30.3096 18.6307C30.9348 19.2558 31.7826 19.607 32.6667 19.607V16.2737ZM1 32.9403H4.33667C4.3371 32.502 4.2511 32.068 4.08357 31.6629C3.91604 31.2579 3.67028 30.8899 3.36036 30.58C3.05043 30.2701 2.68243 30.0243 2.27741 29.8568C1.87238 29.6892 1.4383 29.6032 1 29.6037V32.9403ZM32.6667 32.9403H29.3333C29.3333 32.0563 29.6845 31.2084 30.3096 30.5833C30.9348 29.9582 31.7826 29.607 32.6667 29.607V32.9403Z" stroke="#0BB453" stroke-width="2" stroke-linecap="square"/>
</svg>
