<svg width="50" height="50" viewBox="0 0 50 50" fill="none" xmlns="http://www.w3.org/2000/svg">
<path d="M16.0211 0C7.20234 0 0.0527344 7.16445 0.0527344 16.002V33.9988C0.0527344 42.8363 7.20234 50 16.0211 50H33.9793C42.7984 50 49.9477 42.8363 49.9477 33.9988V16.002C49.9477 7.16445 42.7984 0 33.9793 0H16.0211ZM19.5055 10.5836C19.7398 10.5727 19.9746 10.5734 20.2098 10.5859V12.957C19.5916 12.9228 18.9732 13.0207 18.3958 13.2441C17.8183 13.4675 17.2951 13.8113 16.8609 14.2527C16.0235 15.4317 15.6215 16.8649 15.7234 18.3074V31.641C15.6215 33.0835 16.0235 34.5167 16.8609 35.6957C17.292 36.17 17.823 36.5426 18.4155 36.7869C19.0081 37.0312 19.6474 37.1409 20.2875 37.1082V39.4273C19.3459 39.4749 18.4041 39.3357 17.5165 39.0178C16.6289 38.6999 15.8129 38.2096 15.1156 37.575C14.4281 36.801 13.9051 35.8954 13.5784 34.913C13.2517 33.9307 13.1281 32.8921 13.2152 31.8605V18.1398C13.1189 17.1136 13.2307 16.0785 13.544 15.0966C13.8574 14.1147 14.3657 13.2061 15.0387 12.4254C16.2687 11.3116 17.8479 10.6605 19.5055 10.5836ZM27.7879 10.5844C28.0242 10.573 28.261 10.5735 28.4973 10.5859V12.957C27.8773 12.9232 27.2572 13.0212 26.6778 13.2444C26.0984 13.4677 25.5729 13.8112 25.1359 14.2523C24.3029 15.4332 23.9055 16.8666 24.0113 18.3078V31.6406C23.9059 33.082 24.3031 34.5156 25.1359 35.6953C25.5678 36.1686 26.0988 36.5407 26.6912 36.7848C27.2836 37.0289 27.9226 37.1391 28.5625 37.1074V39.427C27.6102 39.4822 26.6565 39.3468 25.7572 39.0287C24.8579 38.7107 24.0312 38.2163 23.3254 37.5746C22.6399 36.7997 22.1191 35.8936 21.7947 34.9113C21.4702 33.9289 21.3488 32.8909 21.4379 31.8602V18.1398C21.3497 17.1089 21.4715 16.0708 21.7957 15.0883C22.12 14.1062 22.6404 13.2003 23.3254 12.4254C24.5553 11.3142 26.1323 10.6636 27.7879 10.5844ZM36.1016 10.5852C36.337 10.5734 36.5734 10.5737 36.8109 10.5859V12.957C36.1888 12.9217 35.5663 13.0189 34.9846 13.2423C34.4029 13.4656 33.8753 13.8101 33.4367 14.2527C32.6147 15.4559 32.2395 16.9087 32.3762 18.3594V31.6406C32.2707 33.082 32.6688 34.5156 33.5012 35.6953C33.9336 36.1677 34.4647 36.539 35.0567 36.7831C35.6488 37.0271 36.2873 37.1379 36.927 37.1074V39.427C35.026 39.5185 33.1663 38.8523 31.7559 37.5746C31.0593 36.8043 30.526 35.9007 30.1882 34.9186C29.8504 33.9364 29.7152 32.896 29.7906 31.8602V18.1398C29.6999 17.1121 29.8168 16.0765 30.1343 15.0948C30.4519 14.1131 30.9636 13.2053 31.6391 12.4254C32.8697 11.3156 34.4464 10.6657 36.1016 10.5859V10.5852Z" fill="#0BB453"/>
</svg>
