<svg width="50" height="50" viewBox="0 0 50 50" fill="none" xmlns="http://www.w3.org/2000/svg">
<path d="M16.6668 33.3333H33.3335M25.0002 25V33.3333M12.5002 12.5V10.4166C12.5002 4.16665 15.6252 2.08331 20.8335 2.08331H29.1668C34.3752 2.08331 37.5002 5.20831 37.5002 10.4166V12.5C43.7502 12.5 47.9168 16.6666 47.9168 22.9166C47.9168 29.1666 43.7502 33.3333 37.5002 33.3333M12.5002 12.5H29.1668M12.5002 12.5C6.25016 12.5 2.0835 15.625 2.0835 22.9166C2.0835 30.2083 6.25016 33.3333 12.5002 33.3333M16.6668 47.9166H33.3335V25H16.6668V47.9166Z" stroke="#0BB453" stroke-width="2"/>
</svg>
