<svg width="48" height="50" viewBox="0 0 48 50" fill="none" xmlns="http://www.w3.org/2000/svg">
<path d="M18.9726 29.1161C19.0976 27.9119 19.1809 26.6869 19.2851 25.4827C19.6115 25.8189 19.9781 26.1022 20.3851 26.3327C21.0476 26.7536 21.8226 26.9619 22.608 26.9369C23.3372 26.9161 24.0497 26.7161 24.683 26.3536V28.0765C24.676 29.4293 24.7871 30.7723 25.0163 32.1057C25.0163 32.5432 26.0538 32.8119 26.2621 32.1057C26.1371 30.764 26.1371 29.4209 26.2621 28.0765C26.551 26.2501 26.9594 24.4515 27.4872 22.6807C27.5534 22.4797 27.5481 22.2621 27.4721 22.0646C27.3962 21.8672 27.2543 21.7021 27.0705 21.5973C26.8824 21.455 26.6475 21.3888 26.4127 21.4119C26.1779 21.4351 25.9605 21.5459 25.8038 21.7223C25.7196 21.8235 25.6496 21.9357 25.5955 22.0557L25.3684 22.514L24.8684 23.3223C24.5891 23.7127 24.2288 24.0382 23.8122 24.2765C23.4399 24.515 23.0084 24.6449 22.5663 24.6515C22.0881 24.6467 21.6262 24.4775 21.258 24.1723C20.8069 23.8463 20.4369 23.4207 20.1767 22.9286L19.8038 21.9932C19.8038 21.8057 19.658 21.3494 19.6163 21.2244C19.5195 21.096 19.3942 20.9917 19.2504 20.9198C19.1065 20.8479 18.948 20.8102 18.7872 20.8098C18.6213 20.7673 18.447 20.7699 18.2825 20.8176C18.118 20.8652 17.9692 20.9561 17.8517 21.0807C17.1872 21.7848 17.7059 25.7723 17.4142 30.4036C17.4628 30.8516 17.4628 31.3035 17.4142 31.7515C17.4142 32.6265 18.3934 32.8744 18.6205 31.9598C18.8413 31.0286 18.958 30.0744 18.9726 29.1161ZM5.22673 12.8786C4.97147 12.5679 4.68682 12.2825 4.37673 12.0265L3.42048 11.3202C2.65173 10.8223 1.8434 10.4286 1.03298 9.97025C0.891353 9.87131 0.716846 9.83122 0.546236 9.85843C0.375627 9.88563 0.222241 9.978 0.118402 10.1161C0.0206469 10.2544 -0.0188464 10.4256 0.00843211 10.5928C0.0357106 10.76 0.127577 10.9097 0.264235 11.0098C0.889235 11.6536 1.48923 12.2973 2.13298 12.9202C2.40382 13.1911 2.67465 13.4598 2.9434 13.6869C3.21424 13.9161 3.50382 14.1661 3.79548 14.3952C4.51493 14.8827 5.2066 15.4084 5.87048 15.9723C5.97572 16.076 6.11753 16.1341 6.26528 16.1341C6.41302 16.1341 6.55483 16.076 6.66007 15.9723C6.72186 15.9273 6.77381 15.8701 6.81276 15.8043C6.8517 15.7385 6.87681 15.6654 6.88656 15.5895C6.89631 15.5137 6.89049 15.4366 6.86946 15.3631C6.84843 15.2896 6.81262 15.2211 6.76423 15.1619C6.34039 14.3447 5.82454 13.5786 5.22673 12.8786ZM13.4913 3.61816C13.5955 4.00011 13.7274 4.37372 13.8872 4.739C14.033 5.09316 14.1767 5.44525 14.3642 5.79733C14.7997 6.60775 15.3184 7.33483 15.7747 8.164C15.8426 8.28415 15.951 8.3763 16.0805 8.42408C16.21 8.47185 16.3523 8.47214 16.482 8.42491C16.6117 8.37767 16.7204 8.28597 16.7889 8.1661C16.8574 8.04623 16.8811 7.90597 16.8559 7.77025C16.7205 6.83957 16.5327 5.91727 16.2934 5.00775C16.18 4.62811 16.0486 4.25407 15.8997 3.88691C15.7783 3.52452 15.6321 3.17091 15.4622 2.82858C14.9267 1.99733 14.4288 1.24941 13.9497 0.441081C13.9218 0.357863 13.8773 0.281186 13.8189 0.21573C13.7605 0.150274 13.6893 0.0974122 13.6098 0.0603703C13.5302 0.0233284 13.444 0.00288357 13.3563 0.000283602C13.2686 -0.00231637 13.1812 0.012983 13.0997 0.0452481C12.9436 0.109976 12.8192 0.233242 12.753 0.388627C12.6868 0.544011 12.6841 0.719148 12.7455 0.876498C12.9955 1.8515 13.2038 2.74525 13.4955 3.61816M29.0017 9.07858C29.0757 9.08726 29.1506 9.08117 29.2222 9.06067C29.2938 9.04017 29.3606 9.00566 29.4187 8.95915C29.4768 8.91264 29.5252 8.85505 29.5609 8.78973C29.5966 8.7244 29.619 8.65263 29.6267 8.57858C29.9184 7.82441 30.174 7.05636 30.3934 6.27442C30.4976 5.81816 30.5392 5.34108 30.6017 4.88483C30.62 4.18729 30.6967 3.4925 30.8309 2.80775C30.8764 2.73003 30.906 2.64407 30.918 2.55484C30.93 2.46561 30.9243 2.37488 30.901 2.2879C30.8778 2.20091 30.8375 2.1194 30.7826 2.04807C30.7276 1.97674 30.6591 1.91701 30.5809 1.87233C30.4235 1.7822 30.2369 1.75791 30.0617 1.80473C29.8865 1.85156 29.7369 1.96571 29.6455 2.12233C29.2037 2.76564 28.848 3.46391 28.5871 4.19941C28.483 4.51191 28.3997 4.82997 28.3372 5.15358C28.3163 5.47997 28.3163 5.80567 28.3372 6.13066C28.3372 6.91816 28.5038 7.62441 28.5663 8.33066C28.5447 8.40852 28.539 8.4899 28.5494 8.57001C28.5599 8.65012 28.5863 8.72733 28.627 8.79706C28.6678 8.86679 28.7222 8.92763 28.7869 8.97599C28.8516 9.02434 28.9233 9.05923 29.0017 9.07858ZM46.8601 15.6182C45.883 15.6182 44.9705 15.4723 44.0142 15.4723H42.7892C42.3934 15.4723 41.9788 15.6182 41.5851 15.7223C40.6573 16.0362 39.7642 16.4307 38.9059 16.9057C38.8205 16.9175 38.7388 16.9482 38.6667 16.9955C38.5946 17.0427 38.5338 17.1053 38.4888 17.1789C38.4438 17.2524 38.4156 17.335 38.4064 17.4207C38.3971 17.5064 38.4069 17.5931 38.4352 17.6746C38.4634 17.756 38.5094 17.8302 38.5697 17.8918C38.6301 17.9533 38.7033 18.0008 38.7842 18.0306C38.8651 18.0605 38.9516 18.0721 39.0375 18.0645C39.1234 18.057 39.2065 18.0305 39.2809 17.9869C40.2142 17.8411 41.0872 17.8411 41.9788 17.7786L43.1017 17.6536L44.2434 17.4452C45.1351 17.2577 46.008 17.0307 46.9413 16.8432C47.1118 16.8224 47.2683 16.7387 47.3801 16.6084C47.4919 16.4781 47.5509 16.3106 47.5455 16.139C47.5152 15.9827 47.4283 15.8431 47.3014 15.747C47.1745 15.6509 47.0166 15.605 46.858 15.6182M25.6809 43.7536C24.9878 43.7966 24.2955 43.7966 23.6038 43.7536C22.9371 43.7536 22.2747 43.6494 21.5267 43.6077L19.4517 43.5036C18.0809 43.5036 16.7309 43.5036 15.2976 43.3577C15.1489 43.3271 14.9941 43.3557 14.8661 43.4374C14.7381 43.5191 14.647 43.6475 14.6122 43.7952C14.5809 43.9443 14.6092 44.0996 14.691 44.2281C14.7727 44.3565 14.9014 44.4479 15.0497 44.4827C16.2135 44.9449 17.4152 45.3053 18.6413 45.5598C19.1774 45.6571 19.717 45.7126 20.2601 45.7265C20.8003 45.7682 21.3406 45.7682 21.8809 45.7265C23.2226 45.6182 24.5441 45.3897 25.8455 45.0411C26.0149 45.0105 26.1658 44.9155 26.2668 44.7761C26.3677 44.6367 26.4109 44.4636 26.3871 44.2932C26.3609 44.1295 26.2727 43.9822 26.1408 43.8818C26.009 43.7813 25.8436 43.7354 25.6788 43.7536M23.4392 47.9494C22.7436 47.9303 22.0499 47.8677 21.3622 47.7619C20.9057 47.7318 20.4478 47.7318 19.9913 47.7619C19.1601 47.7619 18.3913 47.9702 17.583 48.0536C17.5092 48.0449 17.4344 48.0509 17.363 48.0713C17.2915 48.0916 17.2248 48.126 17.1667 48.1723C17.1086 48.2186 17.0602 48.2759 17.0244 48.341C16.9886 48.4061 16.966 48.4776 16.958 48.5515C16.9513 48.7039 17.0006 48.8534 17.0965 48.972C17.1924 49.0906 17.3284 49.17 17.4788 49.1952C18.1788 49.4633 18.8913 49.6911 19.6163 49.8786C19.9247 49.9341 20.2365 49.9689 20.5517 49.9827C20.8698 50.0036 21.1878 50.0036 21.5059 49.9827C22.293 49.8322 23.0557 49.5742 23.7726 49.2161C23.9364 49.1761 24.0781 49.0738 24.1678 48.931C24.2574 48.7882 24.2878 48.6161 24.2525 48.4512C24.2173 48.2863 24.1191 48.1416 23.9789 48.048C23.8388 47.9543 23.6676 47.9189 23.5017 47.9494H23.4392Z" fill="#0BB453"/>
</svg>
