<svg width="37" height="36" viewBox="0 0 37 36" fill="none" xmlns="http://www.w3.org/2000/svg">
<path d="M0.75 15.3583C0.75 11.484 2.33187 7.76828 5.14763 5.02868C7.96338 2.28909 11.7824 0.75 15.7644 0.75C19.7465 0.75 23.5655 2.28909 26.3812 5.02868C29.197 7.76828 30.7789 11.484 30.7789 15.3583H0.75ZM0.75 15.3583C0.750173 18.1102 1.5488 20.8062 3.054 23.136C4.5592 25.4659 6.70983 27.335 9.25847 28.5283" stroke="#0BB453" stroke-width="1.5"/>
<path d="M13.888 0.75L9.19434 15.3583L10.8559 20.525M17.1718 0.75L22.333 15.3583M24.8015 19.3167L13.8554 23.9317V24.6667L24.8015 29.2833L35.7493 24.6667V23.9317L24.8015 19.3167Z" stroke="#0BB453" stroke-width="1.5"/>
<path d="M18.3467 27.1801L18.357 31.9935L24.803 34.9335L31.2576 31.9935V27.1785" stroke="#0BB453" stroke-width="1.5"/>
<path d="M13.8564 31.4333V24.36" stroke="#0BB453" stroke-width="1.5" stroke-linejoin="round"/>
</svg>
