<svg width="32" height="34" viewBox="0 0 32 34" fill="none" xmlns="http://www.w3.org/2000/svg">
<path d="M23.3333 3.33333C22.8913 3.33333 22.4674 3.15774 22.1548 2.84518C21.8423 2.53262 21.6667 2.10869 21.6667 1.66667C21.6667 1.22464 21.8423 0.800716 22.1548 0.488155C22.4674 0.175595 22.8913 0 23.3333 0H30C30.442 0 30.866 0.175595 31.1785 0.488155C31.4911 0.800716 31.6667 1.22464 31.6667 1.66667V8.33333C31.6667 8.77536 31.4911 9.19928 31.1785 9.51184C30.866 9.82441 30.442 10 30 10C29.558 10 29.1341 9.82441 28.8215 9.51184C28.5089 9.19928 28.3333 8.77536 28.3333 8.33333V5.69L18.6783 15.345C18.3658 15.6575 17.9419 15.833 17.5 15.833C17.0581 15.833 16.6342 15.6575 16.3217 15.345L11.6667 10.69L2.845 19.5117C2.53066 19.8153 2.10966 19.9833 1.67266 19.9795C1.23567 19.9757 0.817649 19.8004 0.508636 19.4914C0.199622 19.1824 0.0243407 18.7643 0.0205433 18.3273C0.016746 17.8903 0.184737 17.4693 0.488333 17.155L10.4883 7.155C10.8009 6.84255 11.2247 6.66702 11.6667 6.66702C12.1086 6.66702 12.5325 6.84255 12.845 7.155L17.5 11.81L25.9767 3.33333H23.3333ZM3.33333 26.6667V31.6667C3.33333 32.1087 3.15774 32.5326 2.84518 32.8452C2.53262 33.1577 2.10869 33.3333 1.66667 33.3333C1.22464 33.3333 0.800716 33.1577 0.488155 32.8452C0.175595 32.5326 0 32.1087 0 31.6667V26.6667C0 26.2246 0.175595 25.8007 0.488155 25.4882C0.800716 25.1756 1.22464 25 1.66667 25C2.10869 25 2.53262 25.1756 2.84518 25.4882C3.15774 25.8007 3.33333 26.2246 3.33333 26.6667ZM11.6667 20C11.6667 19.558 11.4911 19.1341 11.1785 18.8215C10.866 18.5089 10.442 18.3333 10 18.3333C9.55797 18.3333 9.13405 18.5089 8.82149 18.8215C8.50893 19.1341 8.33333 19.558 8.33333 20V31.6667C8.33333 32.1087 8.50893 32.5326 8.82149 32.8452C9.13405 33.1577 9.55797 33.3333 10 33.3333C10.442 33.3333 10.866 33.1577 11.1785 32.8452C11.4911 32.5326 11.6667 32.1087 11.6667 31.6667V20ZM18.3333 21.6667C18.7754 21.6667 19.1993 21.8423 19.5118 22.1548C19.8244 22.4674 20 22.8913 20 23.3333V31.6667C20 32.1087 19.8244 32.5326 19.5118 32.8452C19.1993 33.1577 18.7754 33.3333 18.3333 33.3333C17.8913 33.3333 17.4674 33.1577 17.1548 32.8452C16.8423 32.5326 16.6667 32.1087 16.6667 31.6667V23.3333C16.6667 22.8913 16.8423 22.4674 17.1548 22.1548C17.4674 21.8423 17.8913 21.6667 18.3333 21.6667ZM28.3333 15C28.3333 14.558 28.1577 14.1341 27.8452 13.8215C27.5326 13.5089 27.1087 13.3333 26.6667 13.3333C26.2246 13.3333 25.8007 13.5089 25.4882 13.8215C25.1756 14.1341 25 14.558 25 15V31.6667C25 32.1087 25.1756 32.5326 25.4882 32.8452C25.8007 33.1577 26.2246 33.3333 26.6667 33.3333C27.1087 33.3333 27.5326 33.1577 27.8452 32.8452C28.1577 32.5326 28.3333 32.1087 28.3333 31.6667V15Z" fill="#0BB453"/>
</svg>
