<svg width="44" height="26" viewBox="0 0 44 26" fill="none" xmlns="http://www.w3.org/2000/svg">
<path d="M15.854 2.97498H6.479V9.96775M35.6457 16.3248V23.3176H26.2707" stroke="#0BB453" stroke-width="1.5"/>
<path d="M1.271 6.78921L6.47933 9.96774L11.6877 6.78921M30.4377 19.5033L35.646 16.3248L40.8543 19.5033M24.7085 6.15351C24.7085 7.5866 25.6413 8.96101 27.3018 9.97436C28.9623 10.9877 31.2144 11.557 33.5627 11.557C35.9109 11.557 38.163 10.9877 39.8235 9.97436C41.484 8.96101 42.4168 7.5866 42.4168 6.15351C42.4168 4.72041 41.484 3.346 39.8235 2.33265C38.163 1.3193 35.9109 0.75 33.5627 0.75C31.2144 0.75 28.9623 1.3193 27.3018 2.33265C25.6413 3.346 24.7085 4.72041 24.7085 6.15351Z" stroke="#0BB453" stroke-width="1.5"/>
<path d="M24.7417 6.151H32.5271L35.6667 4.27185L38.7896 6.15354H42.4021M9.60417 13.5506V24.1835M9.60417 13.5506C11.9524 13.5506 14.2045 14.1199 15.865 15.1333C17.5255 16.1466 18.4583 17.521 18.4583 18.9541C18.4583 20.3872 17.5255 21.7616 15.865 22.775C14.2045 23.7883 11.9524 24.3576 9.60417 24.3576C7.2559 24.3576 5.0038 23.7883 3.34333 22.775C1.68285 21.7616 0.75 20.3872 0.75 18.9541C0.75 17.521 1.68285 16.1466 3.34333 15.1333C5.0038 14.1199 7.2559 13.5506 9.60417 13.5506ZM18.3167 18.8677H0.89375" stroke="#0BB453" stroke-width="1.5"/>
</svg>
