<svg width="560" height="60" viewBox="0 0 560 60" fill="none" xmlns="http://www.w3.org/2000/svg">
<path d="M65.1727 24.48C64.5327 23.3067 63.6527 22.4133 62.5327 21.8C61.4127 21.1867 60.106 20.88 58.6127 20.88C56.9593 20.88 55.4927 21.2533 54.2127 22C52.9327 22.7467 51.9327 23.8133 51.2127 25.2C50.4927 26.5867 50.1327 28.1867 50.1327 30C50.1327 31.8667 50.4927 33.4933 51.2127 34.88C51.9593 36.2667 52.986 37.3333 54.2927 38.08C55.5993 38.8267 57.1193 39.2 58.8527 39.2C60.986 39.2 62.7327 38.64 64.0927 37.52C65.4527 36.3733 66.346 34.7867 66.7727 32.76H57.1727V28.48H72.2927V33.36C71.9193 35.3067 71.1193 37.1067 69.8927 38.76C68.666 40.4133 67.0793 41.7467 65.1327 42.76C63.2127 43.7467 61.0527 44.24 58.6527 44.24C55.9593 44.24 53.5193 43.64 51.3327 42.44C49.1727 41.2133 47.466 39.52 46.2127 37.36C44.986 35.2 44.3727 32.7467 44.3727 30C44.3727 27.2533 44.986 24.8 46.2127 22.64C47.466 20.4533 49.1727 18.76 51.3327 17.56C53.5193 16.3333 55.946 15.72 58.6127 15.72C61.7593 15.72 64.4927 16.4933 66.8127 18.04C69.1327 19.56 70.7327 21.7067 71.6127 24.48H65.1727ZM82.0358 25.28C82.7558 24.1067 83.6891 23.1867 84.8358 22.52C86.0091 21.8533 87.3424 21.52 88.8358 21.52V27.4H87.3558C85.5958 27.4 84.2624 27.8133 83.3558 28.64C82.4758 29.4667 82.0358 30.9067 82.0358 32.96V44H76.4358V21.84H82.0358V25.28ZM102.448 44.36C100.314 44.36 98.3943 43.8933 96.6877 42.96C94.981 42 93.6343 40.6533 92.6477 38.92C91.6877 37.1867 91.2077 35.1867 91.2077 32.92C91.2077 30.6533 91.701 28.6533 92.6877 26.92C93.701 25.1867 95.0743 23.8533 96.8077 22.92C98.541 21.96 100.474 21.48 102.608 21.48C104.741 21.48 106.674 21.96 108.408 22.92C110.141 23.8533 111.501 25.1867 112.488 26.92C113.501 28.6533 114.008 30.6533 114.008 32.92C114.008 35.1867 113.488 37.1867 112.448 38.92C111.434 40.6533 110.048 42 108.288 42.96C106.554 43.8933 104.608 44.36 102.448 44.36ZM102.448 39.48C103.461 39.48 104.408 39.24 105.288 38.76C106.194 38.2533 106.914 37.5067 107.448 36.52C107.981 35.5333 108.248 34.3333 108.248 32.92C108.248 30.8133 107.688 29.2 106.568 28.08C105.474 26.9333 104.128 26.36 102.528 26.36C100.928 26.36 99.581 26.9333 98.4877 28.08C97.421 29.2 96.8877 30.8133 96.8877 32.92C96.8877 35.0267 97.4077 36.6533 98.4477 37.8C99.5143 38.92 100.848 39.48 102.448 39.48ZM148.835 21.84L142.355 44H136.315L132.275 28.52L128.235 44H122.155L115.635 21.84H121.315L125.235 38.72L129.475 21.84H135.395L139.555 38.68L143.475 21.84H148.835ZM158.385 26.44V37.16C158.385 37.9067 158.559 38.4533 158.905 38.8C159.279 39.12 159.892 39.28 160.745 39.28H163.345V44H159.825C155.105 44 152.745 41.7067 152.745 37.12V26.44H150.105V21.84H152.745V16.36H158.385V21.84H163.345V26.44H158.385ZM179.853 21.52C181.533 21.52 183.027 21.8933 184.333 22.64C185.64 23.36 186.653 24.44 187.373 25.88C188.12 27.2933 188.493 29 188.493 31V44H182.893V31.76C182.893 30 182.453 28.6533 181.573 27.72C180.693 26.76 179.493 26.28 177.973 26.28C176.427 26.28 175.2 26.76 174.293 27.72C173.413 28.6533 172.973 30 172.973 31.76V44H167.373V14.4H172.973V24.6C173.693 23.64 174.653 22.8933 175.853 22.36C177.053 21.8 178.387 21.52 179.853 21.52ZM224.83 44L221.79 41C219.203 43.32 216.043 44.48 212.31 44.48C210.257 44.48 208.443 44.1333 206.87 43.44C205.323 42.72 204.123 41.72 203.27 40.44C202.417 39.1333 201.99 37.6267 201.99 35.92C201.99 34.08 202.51 32.4267 203.55 30.96C204.59 29.4933 206.123 28.3067 208.15 27.4C207.43 26.52 206.91 25.68 206.59 24.88C206.27 24.0533 206.11 23.1733 206.11 22.24C206.11 20.96 206.443 19.8133 207.11 18.8C207.777 17.76 208.723 16.9467 209.95 16.36C211.203 15.7733 212.657 15.48 214.31 15.48C215.99 15.48 217.43 15.8 218.63 16.44C219.83 17.08 220.723 17.9333 221.31 19C221.897 20.0667 222.15 21.2533 222.07 22.56H216.63C216.657 21.68 216.443 21.0133 215.99 20.56C215.537 20.08 214.923 19.84 214.15 19.84C213.403 19.84 212.777 20.0667 212.27 20.52C211.79 20.9467 211.55 21.5067 211.55 22.2C211.55 22.8667 211.75 23.5333 212.15 24.2C212.55 24.84 213.203 25.64 214.11 26.6L221.15 33.56C221.203 33.5067 221.243 33.4533 221.27 33.4C221.297 33.3467 221.323 33.2933 221.35 33.24L223.63 29.44H229.47L226.67 34.36C226.137 35.4 225.563 36.3867 224.95 37.32L231.71 44H224.83ZM212.47 39.84C214.657 39.84 216.59 39.0667 218.27 37.52L211.39 30.72C208.803 31.8667 207.51 33.4933 207.51 35.6C207.51 36.8 207.963 37.8133 208.87 38.64C209.777 39.44 210.977 39.84 212.47 39.84ZM264.374 24.72C264.374 26.2133 264.014 27.6133 263.294 28.92C262.601 30.2267 261.494 31.28 259.974 32.08C258.481 32.88 256.587 33.28 254.294 33.28H249.614V44H244.014V16.08H254.294C256.454 16.08 258.294 16.4533 259.814 17.2C261.334 17.9467 262.467 18.9733 263.214 20.28C263.987 21.5867 264.374 23.0667 264.374 24.72ZM254.054 28.76C255.601 28.76 256.747 28.4133 257.494 27.72C258.241 27 258.614 26 258.614 24.72C258.614 22 257.094 20.64 254.054 20.64H249.614V28.76H254.054ZM288.95 32.44C288.95 33.24 288.897 33.96 288.79 34.6H272.59C272.723 36.2 273.283 37.4533 274.27 38.36C275.257 39.2667 276.47 39.72 277.91 39.72C279.99 39.72 281.47 38.8267 282.35 37.04H288.39C287.75 39.1733 286.523 40.9333 284.71 42.32C282.897 43.68 280.67 44.36 278.03 44.36C275.897 44.36 273.977 43.8933 272.27 42.96C270.59 42 269.27 40.6533 268.31 38.92C267.377 37.1867 266.91 35.1867 266.91 32.92C266.91 30.6267 267.377 28.6133 268.31 26.88C269.243 25.1467 270.55 23.8133 272.23 22.88C273.91 21.9467 275.843 21.48 278.03 21.48C280.137 21.48 282.017 21.9333 283.67 22.84C285.35 23.7467 286.643 25.04 287.55 26.72C288.483 28.3733 288.95 30.28 288.95 32.44ZM283.15 30.84C283.123 29.4 282.603 28.2533 281.59 27.4C280.577 26.52 279.337 26.08 277.87 26.08C276.483 26.08 275.31 26.5067 274.35 27.36C273.417 28.1867 272.843 29.3467 272.63 30.84H283.15ZM298.637 25.28C299.357 24.1067 300.291 23.1867 301.437 22.52C302.611 21.8533 303.944 21.52 305.437 21.52V27.4H303.957C302.197 27.4 300.864 27.8133 299.957 28.64C299.077 29.4667 298.637 30.9067 298.637 32.96V44H293.037V21.84H298.637V25.28ZM322.329 44L314.809 34.56V44H309.209V14.4H314.809V31.24L322.249 21.84H329.529L319.769 32.96L329.609 44H322.329ZM341.049 44.36C339.235 44.36 337.609 44.04 336.169 43.4C334.729 42.7333 333.582 41.84 332.729 40.72C331.902 39.6 331.449 38.36 331.369 37H337.009C337.115 37.8533 337.529 38.56 338.249 39.12C338.995 39.68 339.915 39.96 341.009 39.96C342.075 39.96 342.902 39.7467 343.489 39.32C344.102 38.8933 344.409 38.3467 344.409 37.68C344.409 36.96 344.035 36.4267 343.289 36.08C342.569 35.7067 341.409 35.3067 339.809 34.88C338.155 34.48 336.795 34.0667 335.729 33.64C334.689 33.2133 333.782 32.56 333.009 31.68C332.262 30.8 331.889 29.6133 331.889 28.12C331.889 26.8933 332.235 25.7733 332.929 24.76C333.649 23.7467 334.662 22.9467 335.969 22.36C337.302 21.7733 338.862 21.48 340.649 21.48C343.289 21.48 345.395 22.1467 346.969 23.48C348.542 24.7867 349.409 26.56 349.569 28.8H344.209C344.129 27.92 343.755 27.2267 343.089 26.72C342.449 26.1867 341.582 25.92 340.489 25.92C339.475 25.92 338.689 26.1067 338.129 26.48C337.595 26.8533 337.329 27.3733 337.329 28.04C337.329 28.7867 337.702 29.36 338.449 29.76C339.195 30.1333 340.355 30.52 341.929 30.92C343.529 31.32 344.849 31.7333 345.889 32.16C346.929 32.5867 347.822 33.2533 348.569 34.16C349.342 35.04 349.742 36.2133 349.769 37.68C349.769 38.96 349.409 40.1067 348.689 41.12C347.995 42.1333 346.982 42.9333 345.649 43.52C344.342 44.08 342.809 44.36 341.049 44.36ZM373.537 44.28C371.59 44.28 369.83 43.9467 368.257 43.28C366.71 42.6133 365.483 41.6533 364.577 40.4C363.67 39.1467 363.203 37.6667 363.177 35.96H369.177C369.257 37.1067 369.657 38.0133 370.377 38.68C371.123 39.3467 372.137 39.68 373.417 39.68C374.723 39.68 375.75 39.3733 376.497 38.76C377.243 38.12 377.617 37.2933 377.617 36.28C377.617 35.4533 377.363 34.7733 376.857 34.24C376.35 33.7067 375.71 33.2933 374.937 33C374.19 32.68 373.15 32.3333 371.817 31.96C370.003 31.4267 368.523 30.9067 367.377 30.4C366.257 29.8667 365.283 29.08 364.457 28.04C363.657 26.9733 363.257 25.56 363.257 23.8C363.257 22.1467 363.67 20.7067 364.497 19.48C365.323 18.2533 366.483 17.32 367.977 16.68C369.47 16.0133 371.177 15.68 373.097 15.68C375.977 15.68 378.31 16.3867 380.097 17.8C381.91 19.1867 382.91 21.1333 383.097 23.64H376.937C376.883 22.68 376.47 21.8933 375.697 21.28C374.95 20.64 373.95 20.32 372.697 20.32C371.603 20.32 370.723 20.6 370.057 21.16C369.417 21.72 369.097 22.5333 369.097 23.6C369.097 24.3467 369.337 24.9733 369.817 25.48C370.323 25.96 370.937 26.36 371.657 26.68C372.403 26.9733 373.443 27.32 374.777 27.72C376.59 28.2533 378.07 28.7867 379.217 29.32C380.363 29.8533 381.35 30.6533 382.177 31.72C383.003 32.7867 383.417 34.1867 383.417 35.92C383.417 37.4133 383.03 38.8 382.257 40.08C381.483 41.36 380.35 42.3867 378.857 43.16C377.363 43.9067 375.59 44.28 373.537 44.28ZM408.872 32.44C408.872 33.24 408.818 33.96 408.712 34.6H392.512C392.645 36.2 393.205 37.4533 394.192 38.36C395.178 39.2667 396.392 39.72 397.832 39.72C399.912 39.72 401.392 38.8267 402.272 37.04H408.312C407.672 39.1733 406.445 40.9333 404.632 42.32C402.818 43.68 400.592 44.36 397.952 44.36C395.818 44.36 393.898 43.8933 392.192 42.96C390.512 42 389.192 40.6533 388.232 38.92C387.298 37.1867 386.832 35.1867 386.832 32.92C386.832 30.6267 387.298 28.6133 388.232 26.88C389.165 25.1467 390.472 23.8133 392.152 22.88C393.832 21.9467 395.765 21.48 397.952 21.48C400.058 21.48 401.938 21.9333 403.592 22.84C405.272 23.7467 406.565 25.04 407.472 26.72C408.405 28.3733 408.872 30.28 408.872 32.44ZM403.072 30.84C403.045 29.4 402.525 28.2533 401.512 27.4C400.498 26.52 399.258 26.08 397.792 26.08C396.405 26.08 395.232 26.5067 394.272 27.36C393.338 28.1867 392.765 29.3467 392.552 30.84H403.072ZM411.519 32.92C411.519 30.6267 411.986 28.6267 412.919 26.92C413.853 25.1867 415.146 23.8533 416.799 22.92C418.453 21.96 420.346 21.48 422.479 21.48C425.226 21.48 427.493 22.1733 429.279 23.56C431.093 24.92 432.306 26.84 432.919 29.32H426.879C426.559 28.36 426.013 27.6133 425.239 27.08C424.493 26.52 423.559 26.24 422.439 26.24C420.839 26.24 419.573 26.8267 418.639 28C417.706 29.1467 417.239 30.7867 417.239 32.92C417.239 35.0267 417.706 36.6667 418.639 37.84C419.573 38.9867 420.839 39.56 422.439 39.56C424.706 39.56 426.186 38.5467 426.879 36.52H432.919C432.306 38.92 431.093 40.8267 429.279 42.24C427.466 43.6533 425.199 44.36 422.479 44.36C420.346 44.36 418.453 43.8933 416.799 42.96C415.146 42 413.853 40.6667 412.919 38.96C411.986 37.2267 411.519 35.2133 411.519 32.92ZM443.542 26.44V37.16C443.542 37.9067 443.715 38.4533 444.062 38.8C444.435 39.12 445.048 39.28 445.902 39.28H448.502V44H444.982C440.262 44 437.902 41.7067 437.902 37.12V26.44H435.262V21.84H437.902V16.36H443.542V21.84H448.502V26.44H443.542ZM455.37 19.2C454.383 19.2 453.556 18.8933 452.89 18.28C452.25 17.64 451.93 16.8533 451.93 15.92C451.93 14.9867 452.25 14.2133 452.89 13.6C453.556 12.96 454.383 12.64 455.37 12.64C456.356 12.64 457.17 12.96 457.81 13.6C458.476 14.2133 458.81 14.9867 458.81 15.92C458.81 16.8533 458.476 17.64 457.81 18.28C457.17 18.8933 456.356 19.2 455.37 19.2ZM458.13 21.84V44H452.53V21.84H458.13ZM473.502 44.36C471.369 44.36 469.449 43.8933 467.742 42.96C466.036 42 464.689 40.6533 463.702 38.92C462.742 37.1867 462.262 35.1867 462.262 32.92C462.262 30.6533 462.756 28.6533 463.742 26.92C464.756 25.1867 466.129 23.8533 467.862 22.92C469.596 21.96 471.529 21.48 473.662 21.48C475.796 21.48 477.729 21.96 479.462 22.92C481.196 23.8533 482.556 25.1867 483.542 26.92C484.556 28.6533 485.062 30.6533 485.062 32.92C485.062 35.1867 484.542 37.1867 483.502 38.92C482.489 40.6533 481.102 42 479.342 42.96C477.609 43.8933 475.662 44.36 473.502 44.36ZM473.502 39.48C474.516 39.48 475.462 39.24 476.342 38.76C477.249 38.2533 477.969 37.5067 478.502 36.52C479.036 35.5333 479.302 34.3333 479.302 32.92C479.302 30.8133 478.742 29.2 477.622 28.08C476.529 26.9333 475.182 26.36 473.582 26.36C471.982 26.36 470.636 26.9333 469.542 28.08C468.476 29.2 467.942 30.8133 467.942 32.92C467.942 35.0267 468.462 36.6533 469.502 37.8C470.569 38.92 471.902 39.48 473.502 39.48ZM501.45 21.52C504.09 21.52 506.223 22.36 507.85 24.04C509.477 25.6933 510.29 28.0133 510.29 31V44H504.69V31.76C504.69 30 504.25 28.6533 503.37 27.72C502.49 26.76 501.29 26.28 499.77 26.28C498.223 26.28 496.997 26.76 496.09 27.72C495.21 28.6533 494.77 30 494.77 31.76V44H489.17V21.84H494.77V24.6C495.517 23.64 496.463 22.8933 497.61 22.36C498.783 21.8 500.063 21.52 501.45 21.52Z" fill="url(#paint0_linear_399_1327)"/>
<rect x="4.70215" y="28.7858" width="37.2979" height="2.92857" fill="url(#paint1_linear_399_1327)"/>
<path d="M7.81055 20L3.90544 27.3214L0.00032568 20L2.23182 30.25L0.00032568 40.5L3.90544 33.1786L7.81055 40.5L5.57906 30.25L7.81055 20Z" fill="#A0FBCD"/>
<rect width="37.2979" height="2.92857" transform="matrix(-1 0 0 1 554.794 28.7858)" fill="url(#paint2_linear_399_1327)"/>
<path d="M551.686 20L555.591 27.3214L559.496 20L557.264 30.25L559.496 40.5L555.591 33.1786L551.686 40.5L553.917 30.25L551.686 20Z" fill="#A0FBCD"/>
<defs>
<linearGradient id="paint0_linear_399_1327" x1="42.9727" y1="30" x2="512.973" y2="30" gradientUnits="userSpaceOnUse">
<stop stop-color="#0BB453"/>
<stop offset="1" stop-color="#242243"/>
</linearGradient>
<linearGradient id="paint1_linear_399_1327" x1="5.93873" y1="31.4512" x2="36.7965" y2="31.4512" gradientUnits="userSpaceOnUse">
<stop stop-color="#A0FBCD"/>
<stop offset="1" stop-color="#010A04"/>
</linearGradient>
<linearGradient id="paint2_linear_399_1327" x1="1.23658" y1="2.66546" x2="32.0943" y2="2.66546" gradientUnits="userSpaceOnUse">
<stop stop-color="#A0FBCD"/>
<stop offset="1" stop-color="#010A04"/>
</linearGradient>
</defs>
</svg>
