<svg width="50" height="50" viewBox="0 0 50 50" fill="none" xmlns="http://www.w3.org/2000/svg">
<path d="M43.7498 22.9166H35.5415C35.3963 22.8974 35.2492 22.8974 35.104 22.9166H34.7498C34.6396 22.9765 34.535 23.0463 34.4373 23.125C34.3221 23.2027 34.2109 23.2861 34.104 23.375C34.0345 23.4602 33.9718 23.5507 33.9165 23.6458C33.8209 23.7769 33.7372 23.9164 33.6665 24.0625L30.3332 33.25L21.6457 9.70831C21.4997 9.30612 21.2334 8.95863 20.8831 8.71306C20.5327 8.46749 20.1152 8.33575 19.6873 8.33575C19.2595 8.33575 18.842 8.46749 18.4916 8.71306C18.1412 8.95863 17.875 9.30612 17.729 9.70831L12.9165 22.9166H6.24984C5.6973 22.9166 5.1674 23.1361 4.7767 23.5268C4.386 23.9175 4.1665 24.4474 4.1665 25C4.1665 25.5525 4.386 26.0824 4.7767 26.4731C5.1674 26.8638 5.6973 27.0833 6.24984 27.0833H15.2082C15.3256 27.0245 15.4372 26.9548 15.5415 26.875C15.6567 26.7973 15.768 26.7138 15.8748 26.625L16.0623 26.3541C16.1616 26.2255 16.2455 26.0856 16.3123 25.9375L19.6873 16.5L28.354 40.2916C28.4996 40.6943 28.7657 41.0423 29.1161 41.2883C29.4665 41.5344 29.8842 41.6665 30.3123 41.6666C30.7405 41.6665 31.1582 41.5344 31.5086 41.2883C31.859 41.0423 32.1251 40.6943 32.2707 40.2916L37.0623 27.0833H43.7498C44.3024 27.0833 44.8323 26.8638 45.223 26.4731C45.6137 26.0824 45.8332 25.5525 45.8332 25C45.8332 24.4474 45.6137 23.9175 45.223 23.5268C44.8323 23.1361 44.3024 22.9166 43.7498 22.9166Z" fill="#0BB453"/>
</svg>
