<svg width="50" height="23" viewBox="0 0 50 23" fill="none" xmlns="http://www.w3.org/2000/svg">
<path d="M11.4583 22.9167C8.26389 22.9167 5.55556 21.8056 3.33333 19.5833C1.11111 17.3611 0 14.6528 0 11.4583C0 8.26389 1.11111 5.55556 3.33333 3.33333C5.55556 1.11111 8.26389 0 11.4583 0C12.7431 0 13.9757 0.225694 15.1562 0.677083C16.3368 1.12847 17.3958 1.77083 18.3333 2.60417L21.875 5.83333L18.75 8.64583L15.5208 5.72917C14.9653 5.24306 14.3403 4.86111 13.6458 4.58333C12.9514 4.30555 12.2222 4.16667 11.4583 4.16667C9.44444 4.16667 7.72569 4.87847 6.30208 6.30208C4.87847 7.72569 4.16667 9.44444 4.16667 11.4583C4.16667 13.4722 4.87847 15.191 6.30208 16.6146C7.72569 18.0382 9.44444 18.75 11.4583 18.75C12.2222 18.75 12.9514 18.6111 13.6458 18.3333C14.3403 18.0556 14.9653 17.6736 15.5208 17.1875L31.6667 2.60417C32.6042 1.77083 33.6632 1.12847 34.8438 0.677083C36.0243 0.225694 37.2569 0 38.5417 0C41.7361 0 44.4444 1.11111 46.6667 3.33333C48.8889 5.55556 50 8.26389 50 11.4583C50 14.6528 48.8889 17.3611 46.6667 19.5833C44.4444 21.8056 41.7361 22.9167 38.5417 22.9167C37.2569 22.9167 36.0243 22.691 34.8438 22.2396C33.6632 21.7882 32.6042 21.1458 31.6667 20.3125L28.125 17.0833L31.25 14.2708L34.4792 17.1875C35.0347 17.6736 35.6597 18.0556 36.3542 18.3333C37.0486 18.6111 37.7778 18.75 38.5417 18.75C40.5556 18.75 42.2743 18.0382 43.6979 16.6146C45.1215 15.191 45.8333 13.4722 45.8333 11.4583C45.8333 9.44444 45.1215 7.72569 43.6979 6.30208C42.2743 4.87847 40.5556 4.16667 38.5417 4.16667C37.7778 4.16667 37.0486 4.30555 36.3542 4.58333C35.6597 4.86111 35.0347 5.24306 34.4792 5.72917L18.3333 20.3125C17.3958 21.1458 16.3368 21.7882 15.1562 22.2396C13.9757 22.691 12.7431 22.9167 11.4583 22.9167Z" fill="#0BB453"/>
</svg>
