<svg width="50" height="50" viewBox="0 0 50 50" fill="none" xmlns="http://www.w3.org/2000/svg">
<path d="M24.9998 45.8333L20.8332 33.3333H4.1665L8.33317 45.8333H24.9998ZM24.9998 45.8333H33.3332M24.9998 27.0833V26.0416C24.9998 22.1124 24.9998 20.1499 23.779 18.9291C22.5582 17.7083 20.5957 17.7083 16.6665 17.7083C12.7373 17.7083 10.7748 17.7083 9.554 18.9291C8.33317 20.1499 8.33317 22.1124 8.33317 26.0416V27.0833" stroke="#0BB453" stroke-width="1.5" stroke-linecap="round" stroke-linejoin="round"/>
<path d="M39.5833 27.0833C39.5833 28.1884 39.1443 29.2482 38.3629 30.0296C37.5815 30.811 36.5217 31.25 35.4167 31.25C34.3116 31.25 33.2518 30.811 32.4704 30.0296C31.689 29.2482 31.25 28.1884 31.25 27.0833C31.25 25.9782 31.689 24.9184 32.4704 24.137C33.2518 23.3556 34.3116 22.9166 35.4167 22.9166C36.5217 22.9166 37.5815 23.3556 38.3629 24.137C39.1443 24.9184 39.5833 25.9782 39.5833 27.0833ZM20.8333 8.33329C20.8333 9.43836 20.3943 10.4982 19.6129 11.2796C18.8315 12.061 17.7717 12.5 16.6667 12.5C15.5616 12.5 14.5018 12.061 13.7204 11.2796C12.939 10.4982 12.5 9.43836 12.5 8.33329C12.5 7.22822 12.939 6.16842 13.7204 5.38701C14.5018 4.60561 15.5616 4.16663 16.6667 4.16663C17.7717 4.16663 18.8315 4.60561 19.6129 5.38701C20.3943 6.16842 20.8333 7.22822 20.8333 8.33329Z" stroke="#0BB453" stroke-width="1.5"/>
<path d="M29.1665 36.4583H41.6665C42.7716 36.4583 43.8314 36.8972 44.6128 37.6786C45.3942 38.46 45.8332 39.5198 45.8332 40.6249V41.6666C45.8332 42.7717 45.3942 43.8315 44.6128 44.6129C43.8314 45.3943 42.7716 45.8333 41.6665 45.8333H39.5832" stroke="#0BB453" stroke-width="1.5" stroke-linecap="round"/>
</svg>
