<svg width="511" height="60" viewBox="0 0 511 60" fill="none" xmlns="http://www.w3.org/2000/svg">
<path d="M62.7205 44.28C60.1072 44.28 57.7072 43.6667 55.5205 42.44C53.3338 41.2133 51.6005 39.52 50.3205 37.36C49.0405 35.1733 48.4005 32.7067 48.4005 29.96C48.4005 27.24 49.0405 24.8 50.3205 22.64C51.6005 20.4533 53.3338 18.7467 55.5205 17.52C57.7072 16.2933 60.1072 15.68 62.7205 15.68C65.3605 15.68 67.7605 16.2933 69.9205 17.52C72.1072 18.7467 73.8272 20.4533 75.0805 22.64C76.3605 24.8 77.0005 27.24 77.0005 29.96C77.0005 32.7067 76.3605 35.1733 75.0805 37.36C73.8272 39.52 72.1072 41.2133 69.9205 42.44C67.7338 43.6667 65.3338 44.28 62.7205 44.28ZM62.7205 39.28C64.4005 39.28 65.8805 38.9067 67.1605 38.16C68.4405 37.3867 69.4405 36.2933 70.1605 34.88C70.8805 33.4667 71.2405 31.8267 71.2405 29.96C71.2405 28.0933 70.8805 26.4667 70.1605 25.08C69.4405 23.6667 68.4405 22.5867 67.1605 21.84C65.8805 21.0933 64.4005 20.72 62.7205 20.72C61.0405 20.72 59.5472 21.0933 58.2405 21.84C56.9605 22.5867 55.9605 23.6667 55.2405 25.08C54.5205 26.4667 54.1605 28.0933 54.1605 29.96C54.1605 31.8267 54.5205 33.4667 55.2405 34.88C55.9605 36.2933 56.9605 37.3867 58.2405 38.16C59.5472 38.9067 61.0405 39.28 62.7205 39.28ZM102.087 21.84V44H96.4467V41.2C95.7267 42.16 94.7801 42.92 93.6067 43.48C92.4601 44.0133 91.2067 44.28 89.8467 44.28C88.1134 44.28 86.5801 43.92 85.2467 43.2C83.9134 42.4533 82.8601 41.3733 82.0867 39.96C81.3401 38.52 80.9667 36.8133 80.9667 34.84V21.84H86.5667V34.04C86.5667 35.8 87.0067 37.16 87.8867 38.12C88.7667 39.0533 89.9667 39.52 91.4867 39.52C93.0334 39.52 94.2467 39.0533 95.1267 38.12C96.0067 37.16 96.4467 35.8 96.4467 34.04V21.84H102.087ZM113.212 25.28C113.932 24.1067 114.865 23.1867 116.012 22.52C117.185 21.8533 118.519 21.52 120.012 21.52V27.4H118.532C116.772 27.4 115.439 27.8133 114.532 28.64C113.652 29.4667 113.212 30.9067 113.212 32.96V44H107.612V21.84H113.212V25.28ZM163.755 16.08V44H158.155V25.84L150.675 44H146.435L138.915 25.84V44H133.315V16.08H139.675L148.555 36.84L157.435 16.08H163.755ZM172.132 19.2C171.145 19.2 170.318 18.8933 169.652 18.28C169.012 17.64 168.692 16.8533 168.692 15.92C168.692 14.9867 169.012 14.2133 169.652 13.6C170.318 12.96 171.145 12.64 172.132 12.64C173.118 12.64 173.932 12.96 174.572 13.6C175.238 14.2133 175.572 14.9867 175.572 15.92C175.572 16.8533 175.238 17.64 174.572 18.28C173.932 18.8933 173.118 19.2 172.132 19.2ZM174.892 21.84V44H169.292V21.84H174.892ZM188.905 44.36C187.091 44.36 185.465 44.04 184.025 43.4C182.585 42.7333 181.438 41.84 180.585 40.72C179.758 39.6 179.305 38.36 179.225 37H184.865C184.971 37.8533 185.385 38.56 186.105 39.12C186.851 39.68 187.771 39.96 188.865 39.96C189.931 39.96 190.758 39.7467 191.345 39.32C191.958 38.8933 192.265 38.3467 192.265 37.68C192.265 36.96 191.891 36.4267 191.145 36.08C190.425 35.7067 189.265 35.3067 187.665 34.88C186.011 34.48 184.651 34.0667 183.585 33.64C182.545 33.2133 181.638 32.56 180.865 31.68C180.118 30.8 179.745 29.6133 179.745 28.12C179.745 26.8933 180.091 25.7733 180.785 24.76C181.505 23.7467 182.518 22.9467 183.825 22.36C185.158 21.7733 186.718 21.48 188.505 21.48C191.145 21.48 193.251 22.1467 194.825 23.48C196.398 24.7867 197.265 26.56 197.425 28.8H192.065C191.985 27.92 191.611 27.2267 190.945 26.72C190.305 26.1867 189.438 25.92 188.345 25.92C187.331 25.92 186.545 26.1067 185.985 26.48C185.451 26.8533 185.185 27.3733 185.185 28.04C185.185 28.7867 185.558 29.36 186.305 29.76C187.051 30.1333 188.211 30.52 189.785 30.92C191.385 31.32 192.705 31.7333 193.745 32.16C194.785 32.5867 195.678 33.2533 196.425 34.16C197.198 35.04 197.598 36.2133 197.625 37.68C197.625 38.96 197.265 40.1067 196.545 41.12C195.851 42.1333 194.838 42.9333 193.505 43.52C192.198 44.08 190.665 44.36 188.905 44.36ZM210.701 44.36C208.888 44.36 207.261 44.04 205.821 43.4C204.381 42.7333 203.235 41.84 202.381 40.72C201.555 39.6 201.101 38.36 201.021 37H206.661C206.768 37.8533 207.181 38.56 207.901 39.12C208.648 39.68 209.568 39.96 210.661 39.96C211.728 39.96 212.555 39.7467 213.141 39.32C213.755 38.8933 214.061 38.3467 214.061 37.68C214.061 36.96 213.688 36.4267 212.941 36.08C212.221 35.7067 211.061 35.3067 209.461 34.88C207.808 34.48 206.448 34.0667 205.381 33.64C204.341 33.2133 203.435 32.56 202.661 31.68C201.915 30.8 201.541 29.6133 201.541 28.12C201.541 26.8933 201.888 25.7733 202.581 24.76C203.301 23.7467 204.315 22.9467 205.621 22.36C206.955 21.7733 208.515 21.48 210.301 21.48C212.941 21.48 215.048 22.1467 216.621 23.48C218.195 24.7867 219.061 26.56 219.221 28.8H213.861C213.781 27.92 213.408 27.2267 212.741 26.72C212.101 26.1867 211.235 25.92 210.141 25.92C209.128 25.92 208.341 26.1067 207.781 26.48C207.248 26.8533 206.981 27.3733 206.981 28.04C206.981 28.7867 207.355 29.36 208.101 29.76C208.848 30.1333 210.008 30.52 211.581 30.92C213.181 31.32 214.501 31.7333 215.541 32.16C216.581 32.5867 217.475 33.2533 218.221 34.16C218.995 35.04 219.395 36.2133 219.421 37.68C219.421 38.96 219.061 40.1067 218.341 41.12C217.648 42.1333 216.635 42.9333 215.301 43.52C213.995 44.08 212.461 44.36 210.701 44.36ZM226.858 19.2C225.872 19.2 225.045 18.8933 224.378 18.28C223.738 17.64 223.418 16.8533 223.418 15.92C223.418 14.9867 223.738 14.2133 224.378 13.6C225.045 12.96 225.872 12.64 226.858 12.64C227.845 12.64 228.658 12.96 229.298 13.6C229.965 14.2133 230.298 14.9867 230.298 15.92C230.298 16.8533 229.965 17.64 229.298 18.28C228.658 18.8933 227.845 19.2 226.858 19.2ZM229.618 21.84V44H224.018V21.84H229.618ZM244.991 44.36C242.858 44.36 240.938 43.8933 239.231 42.96C237.524 42 236.178 40.6533 235.191 38.92C234.231 37.1867 233.751 35.1867 233.751 32.92C233.751 30.6533 234.244 28.6533 235.231 26.92C236.244 25.1867 237.618 23.8533 239.351 22.92C241.084 21.96 243.018 21.48 245.151 21.48C247.284 21.48 249.218 21.96 250.951 22.92C252.684 23.8533 254.044 25.1867 255.031 26.92C256.044 28.6533 256.551 30.6533 256.551 32.92C256.551 35.1867 256.031 37.1867 254.991 38.92C253.978 40.6533 252.591 42 250.831 42.96C249.098 43.8933 247.151 44.36 244.991 44.36ZM244.991 39.48C246.004 39.48 246.951 39.24 247.831 38.76C248.738 38.2533 249.458 37.5067 249.991 36.52C250.524 35.5333 250.791 34.3333 250.791 32.92C250.791 30.8133 250.231 29.2 249.111 28.08C248.018 26.9333 246.671 26.36 245.071 26.36C243.471 26.36 242.124 26.9333 241.031 28.08C239.964 29.2 239.431 30.8133 239.431 32.92C239.431 35.0267 239.951 36.6533 240.991 37.8C242.058 38.92 243.391 39.48 244.991 39.48ZM272.939 21.52C275.579 21.52 277.712 22.36 279.339 24.04C280.966 25.6933 281.779 28.0133 281.779 31V44H276.179V31.76C276.179 30 275.739 28.6533 274.859 27.72C273.979 26.76 272.779 26.28 271.259 26.28C269.712 26.28 268.486 26.76 267.579 27.72C266.699 28.6533 266.259 30 266.259 31.76V44H260.659V21.84H266.259V24.6C267.006 23.64 267.952 22.8933 269.099 22.36C270.272 21.8 271.552 21.52 272.939 21.52ZM318.115 44L315.075 41C312.489 43.32 309.329 44.48 305.595 44.48C303.542 44.48 301.729 44.1333 300.155 43.44C298.609 42.72 297.409 41.72 296.555 40.44C295.702 39.1333 295.275 37.6267 295.275 35.92C295.275 34.08 295.795 32.4267 296.835 30.96C297.875 29.4933 299.409 28.3067 301.435 27.4C300.715 26.52 300.195 25.68 299.875 24.88C299.555 24.0533 299.395 23.1733 299.395 22.24C299.395 20.96 299.729 19.8133 300.395 18.8C301.062 17.76 302.009 16.9467 303.235 16.36C304.489 15.7733 305.942 15.48 307.595 15.48C309.275 15.48 310.715 15.8 311.915 16.44C313.115 17.08 314.009 17.9333 314.595 19C315.182 20.0667 315.435 21.2533 315.355 22.56H309.915C309.942 21.68 309.729 21.0133 309.275 20.56C308.822 20.08 308.209 19.84 307.435 19.84C306.689 19.84 306.062 20.0667 305.555 20.52C305.075 20.9467 304.835 21.5067 304.835 22.2C304.835 22.8667 305.035 23.5333 305.435 24.2C305.835 24.84 306.489 25.64 307.395 26.6L314.435 33.56C314.489 33.5067 314.529 33.4533 314.555 33.4C314.582 33.3467 314.609 33.2933 314.635 33.24L316.915 29.44H322.755L319.955 34.36C319.422 35.4 318.849 36.3867 318.235 37.32L324.995 44H318.115ZM305.755 39.84C307.942 39.84 309.875 39.0667 311.555 37.52L304.675 30.72C302.089 31.8667 300.795 33.4933 300.795 35.6C300.795 36.8 301.249 37.8133 302.155 38.64C303.062 39.44 304.262 39.84 305.755 39.84ZM362.38 16.08L352.14 44H345.34L335.1 16.08H341.1L348.78 38.28L356.42 16.08H362.38ZM368.577 19.2C367.59 19.2 366.764 18.8933 366.097 18.28C365.457 17.64 365.137 16.8533 365.137 15.92C365.137 14.9867 365.457 14.2133 366.097 13.6C366.764 12.96 367.59 12.64 368.577 12.64C369.564 12.64 370.377 12.96 371.017 13.6C371.684 14.2133 372.017 14.9867 372.017 15.92C372.017 16.8533 371.684 17.64 371.017 18.28C370.377 18.8933 369.564 19.2 368.577 19.2ZM371.337 21.84V44H365.737V21.84H371.337ZM385.35 44.36C383.537 44.36 381.91 44.04 380.47 43.4C379.03 42.7333 377.883 41.84 377.03 40.72C376.203 39.6 375.75 38.36 375.67 37H381.31C381.417 37.8533 381.83 38.56 382.55 39.12C383.297 39.68 384.217 39.96 385.31 39.96C386.377 39.96 387.203 39.7467 387.79 39.32C388.403 38.8933 388.71 38.3467 388.71 37.68C388.71 36.96 388.337 36.4267 387.59 36.08C386.87 35.7067 385.71 35.3067 384.11 34.88C382.457 34.48 381.097 34.0667 380.03 33.64C378.99 33.2133 378.083 32.56 377.31 31.68C376.563 30.8 376.19 29.6133 376.19 28.12C376.19 26.8933 376.537 25.7733 377.23 24.76C377.95 23.7467 378.963 22.9467 380.27 22.36C381.603 21.7733 383.163 21.48 384.95 21.48C387.59 21.48 389.697 22.1467 391.27 23.48C392.843 24.7867 393.71 26.56 393.87 28.8H388.51C388.43 27.92 388.057 27.2267 387.39 26.72C386.75 26.1867 385.883 25.92 384.79 25.92C383.777 25.92 382.99 26.1067 382.43 26.48C381.897 26.8533 381.63 27.3733 381.63 28.04C381.63 28.7867 382.003 29.36 382.75 29.76C383.497 30.1333 384.657 30.52 386.23 30.92C387.83 31.32 389.15 31.7333 390.19 32.16C391.23 32.5867 392.123 33.2533 392.87 34.16C393.643 35.04 394.043 36.2133 394.07 37.68C394.07 38.96 393.71 40.1067 392.99 41.12C392.297 42.1333 391.283 42.9333 389.95 43.52C388.643 44.08 387.11 44.36 385.35 44.36ZM401.507 19.2C400.52 19.2 399.693 18.8933 399.027 18.28C398.387 17.64 398.067 16.8533 398.067 15.92C398.067 14.9867 398.387 14.2133 399.027 13.6C399.693 12.96 400.52 12.64 401.507 12.64C402.493 12.64 403.307 12.96 403.947 13.6C404.613 14.2133 404.947 14.9867 404.947 15.92C404.947 16.8533 404.613 17.64 403.947 18.28C403.307 18.8933 402.493 19.2 401.507 19.2ZM404.267 21.84V44H398.667V21.84H404.267ZM419.64 44.36C417.506 44.36 415.586 43.8933 413.88 42.96C412.173 42 410.826 40.6533 409.84 38.92C408.88 37.1867 408.4 35.1867 408.4 32.92C408.4 30.6533 408.893 28.6533 409.88 26.92C410.893 25.1867 412.266 23.8533 414 22.92C415.733 21.96 417.666 21.48 419.8 21.48C421.933 21.48 423.866 21.96 425.6 22.92C427.333 23.8533 428.693 25.1867 429.68 26.92C430.693 28.6533 431.2 30.6533 431.2 32.92C431.2 35.1867 430.68 37.1867 429.64 38.92C428.626 40.6533 427.24 42 425.48 42.96C423.746 43.8933 421.8 44.36 419.64 44.36ZM419.64 39.48C420.653 39.48 421.6 39.24 422.48 38.76C423.386 38.2533 424.106 37.5067 424.64 36.52C425.173 35.5333 425.44 34.3333 425.44 32.92C425.44 30.8133 424.88 29.2 423.76 28.08C422.666 26.9333 421.32 26.36 419.72 26.36C418.12 26.36 416.773 26.9333 415.68 28.08C414.613 29.2 414.08 30.8133 414.08 32.92C414.08 35.0267 414.6 36.6533 415.64 37.8C416.706 38.92 418.04 39.48 419.64 39.48ZM447.587 21.52C450.227 21.52 452.361 22.36 453.987 24.04C455.614 25.6933 456.427 28.0133 456.427 31V44H450.827V31.76C450.827 30 450.387 28.6533 449.507 27.72C448.627 26.76 447.427 26.28 445.907 26.28C444.361 26.28 443.134 26.76 442.227 27.72C441.347 28.6533 440.907 30 440.907 31.76V44H435.307V21.84H440.907V24.6C441.654 23.64 442.601 22.8933 443.747 22.36C444.921 21.8 446.201 21.52 447.587 21.52Z" fill="url(#paint0_linear_373_1235)"/>
<rect x="4.70264" y="28.7857" width="37.2979" height="2.92857" fill="url(#paint1_linear_373_1235)"/>
<path d="M7.81055 20L3.90544 27.3214L0.00032568 20L2.23182 30.25L0.00032568 40.5L3.90544 33.1786L7.81055 40.5L5.57906 30.25L7.81055 20Z" fill="#A0FBCD"/>
<rect width="37.2979" height="2.92857" transform="matrix(-1 0 0 1 506.296 28.7857)" fill="url(#paint2_linear_373_1235)"/>
<path d="M503.188 20L507.093 27.3214L510.998 20L508.767 30.25L510.998 40.5L507.093 33.1786L503.188 40.5L505.419 30.25L503.188 20Z" fill="#A0FBCD"/>
<defs>
<linearGradient id="paint0_linear_373_1235" x1="47.0005" y1="30" x2="459" y2="30" gradientUnits="userSpaceOnUse">
<stop stop-color="#0BB453"/>
<stop offset="1" stop-color="#242243"/>
</linearGradient>
<linearGradient id="paint1_linear_373_1235" x1="5.93922" y1="31.4512" x2="36.797" y2="31.4512" gradientUnits="userSpaceOnUse">
<stop stop-color="#A0FBCD"/>
<stop offset="1" stop-color="#010A04"/>
</linearGradient>
<linearGradient id="paint2_linear_373_1235" x1="1.23658" y1="2.66546" x2="32.0943" y2="2.66546" gradientUnits="userSpaceOnUse">
<stop stop-color="#A0FBCD"/>
<stop offset="1" stop-color="#010A04"/>
</linearGradient>
</defs>
</svg>
