<svg width="344" height="60" viewBox="0 0 344 60" fill="none" xmlns="http://www.w3.org/2000/svg">
<path d="M59.718 44.28C57.1047 44.28 54.7047 43.6667 52.518 42.44C50.3314 41.2133 48.598 39.52 47.318 37.36C46.038 35.1733 45.398 32.7067 45.398 29.96C45.398 27.24 46.038 24.8 47.318 22.64C48.598 20.4533 50.3314 18.7467 52.518 17.52C54.7047 16.2933 57.1047 15.68 59.718 15.68C62.358 15.68 64.758 16.2933 66.918 17.52C69.1047 18.7467 70.8247 20.4533 72.078 22.64C73.358 24.8 73.998 27.24 73.998 29.96C73.998 32.7067 73.358 35.1733 72.078 37.36C70.8247 39.52 69.1047 41.2133 66.918 42.44C64.7314 43.6667 62.3314 44.28 59.718 44.28ZM59.718 39.28C61.398 39.28 62.878 38.9067 64.158 38.16C65.438 37.3867 66.438 36.2933 67.158 34.88C67.878 33.4667 68.238 31.8267 68.238 29.96C68.238 28.0933 67.878 26.4667 67.158 25.08C66.438 23.6667 65.438 22.5867 64.158 21.84C62.878 21.0933 61.398 20.72 59.718 20.72C58.038 20.72 56.5447 21.0933 55.238 21.84C53.958 22.5867 52.958 23.6667 52.238 25.08C51.518 26.4667 51.158 28.0933 51.158 29.96C51.158 31.8267 51.518 33.4667 52.238 34.88C52.958 36.2933 53.958 37.3867 55.238 38.16C56.5447 38.9067 58.038 39.28 59.718 39.28ZM99.0843 21.84V44H93.4443V41.2C92.7243 42.16 91.7776 42.92 90.6043 43.48C89.4576 44.0133 88.2043 44.28 86.8443 44.28C85.111 44.28 83.5776 43.92 82.2443 43.2C80.911 42.4533 79.8576 41.3733 79.0843 39.96C78.3376 38.52 77.9643 36.8133 77.9643 34.84V21.84H83.5643V34.04C83.5643 35.8 84.0043 37.16 84.8843 38.12C85.7643 39.0533 86.9643 39.52 88.4843 39.52C90.031 39.52 91.2443 39.0533 92.1243 38.12C93.0043 37.16 93.4443 35.8 93.4443 34.04V21.84H99.0843ZM110.21 25.28C110.93 24.1067 111.863 23.1867 113.01 22.52C114.183 21.8533 115.516 21.52 117.01 21.52V27.4H115.53C113.77 27.4 112.436 27.8133 111.53 28.64C110.65 29.4667 110.21 30.9067 110.21 32.96V44H104.61V21.84H110.21V25.28ZM139.953 44.28C138.006 44.28 136.246 43.9467 134.673 43.28C133.126 42.6133 131.899 41.6533 130.993 40.4C130.086 39.1467 129.619 37.6667 129.593 35.96H135.593C135.673 37.1067 136.073 38.0133 136.793 38.68C137.539 39.3467 138.553 39.68 139.833 39.68C141.139 39.68 142.166 39.3733 142.913 38.76C143.659 38.12 144.033 37.2933 144.033 36.28C144.033 35.4533 143.779 34.7733 143.273 34.24C142.766 33.7067 142.126 33.2933 141.353 33C140.606 32.68 139.566 32.3333 138.233 31.96C136.419 31.4267 134.939 30.9067 133.793 30.4C132.673 29.8667 131.699 29.08 130.873 28.04C130.073 26.9733 129.673 25.56 129.673 23.8C129.673 22.1467 130.086 20.7067 130.913 19.48C131.739 18.2533 132.899 17.32 134.393 16.68C135.886 16.0133 137.593 15.68 139.513 15.68C142.393 15.68 144.726 16.3867 146.513 17.8C148.326 19.1867 149.326 21.1333 149.513 23.64H143.353C143.299 22.68 142.886 21.8933 142.113 21.28C141.366 20.64 140.366 20.32 139.113 20.32C138.019 20.32 137.139 20.6 136.473 21.16C135.833 21.72 135.513 22.5333 135.513 23.6C135.513 24.3467 135.753 24.9733 136.233 25.48C136.739 25.96 137.353 26.36 138.073 26.68C138.819 26.9733 139.859 27.32 141.193 27.72C143.006 28.2533 144.486 28.7867 145.633 29.32C146.779 29.8533 147.766 30.6533 148.593 31.72C149.419 32.7867 149.833 34.1867 149.833 35.92C149.833 37.4133 149.446 38.8 148.673 40.08C147.899 41.36 146.766 42.3867 145.273 43.16C143.779 43.9067 142.006 44.28 139.953 44.28ZM175.288 32.44C175.288 33.24 175.234 33.96 175.128 34.6H158.928C159.061 36.2 159.621 37.4533 160.608 38.36C161.594 39.2667 162.808 39.72 164.248 39.72C166.328 39.72 167.808 38.8267 168.688 37.04H174.728C174.088 39.1733 172.861 40.9333 171.048 42.32C169.234 43.68 167.008 44.36 164.368 44.36C162.234 44.36 160.314 43.8933 158.608 42.96C156.928 42 155.608 40.6533 154.648 38.92C153.714 37.1867 153.248 35.1867 153.248 32.92C153.248 30.6267 153.714 28.6133 154.648 26.88C155.581 25.1467 156.888 23.8133 158.568 22.88C160.248 21.9467 162.181 21.48 164.368 21.48C166.474 21.48 168.354 21.9333 170.008 22.84C171.688 23.7467 172.981 25.04 173.888 26.72C174.821 28.3733 175.288 30.28 175.288 32.44ZM169.488 30.84C169.461 29.4 168.941 28.2533 167.928 27.4C166.914 26.52 165.674 26.08 164.208 26.08C162.821 26.08 161.648 26.5067 160.688 27.36C159.754 28.1867 159.181 29.3467 158.968 30.84H169.488ZM184.975 25.28C185.695 24.1067 186.629 23.1867 187.775 22.52C188.949 21.8533 190.282 21.52 191.775 21.52V27.4H190.295C188.535 27.4 187.202 27.8133 186.295 28.64C185.415 29.4667 184.975 30.9067 184.975 32.96V44H179.375V21.84H184.975V25.28ZM204.787 38.84L210.387 21.84H216.347L208.147 44H201.347L193.187 21.84H199.187L204.787 38.84ZM222.332 19.2C221.346 19.2 220.519 18.8933 219.852 18.28C219.212 17.64 218.892 16.8533 218.892 15.92C218.892 14.9867 219.212 14.2133 219.852 13.6C220.519 12.96 221.346 12.64 222.332 12.64C223.319 12.64 224.132 12.96 224.772 13.6C225.439 14.2133 225.772 14.9867 225.772 15.92C225.772 16.8533 225.439 17.64 224.772 18.28C224.132 18.8933 223.319 19.2 222.332 19.2ZM225.092 21.84V44H219.492V21.84H225.092ZM229.185 32.92C229.185 30.6267 229.652 28.6267 230.585 26.92C231.519 25.1867 232.812 23.8533 234.465 22.92C236.119 21.96 238.012 21.48 240.145 21.48C242.892 21.48 245.159 22.1733 246.945 23.56C248.759 24.92 249.972 26.84 250.585 29.32H244.545C244.225 28.36 243.679 27.6133 242.905 27.08C242.159 26.52 241.225 26.24 240.105 26.24C238.505 26.24 237.239 26.8267 236.305 28C235.372 29.1467 234.905 30.7867 234.905 32.92C234.905 35.0267 235.372 36.6667 236.305 37.84C237.239 38.9867 238.505 39.56 240.105 39.56C242.372 39.56 243.852 38.5467 244.545 36.52H250.585C249.972 38.92 248.759 40.8267 246.945 42.24C245.132 43.6533 242.865 44.36 240.145 44.36C238.012 44.36 236.119 43.8933 234.465 42.96C232.812 42 231.519 40.6667 230.585 38.96C229.652 37.2267 229.185 35.2133 229.185 32.92ZM275.288 32.44C275.288 33.24 275.234 33.96 275.128 34.6H258.928C259.061 36.2 259.621 37.4533 260.608 38.36C261.594 39.2667 262.808 39.72 264.248 39.72C266.328 39.72 267.808 38.8267 268.688 37.04H274.728C274.088 39.1733 272.861 40.9333 271.048 42.32C269.234 43.68 267.008 44.36 264.368 44.36C262.234 44.36 260.314 43.8933 258.608 42.96C256.928 42 255.608 40.6533 254.648 38.92C253.714 37.1867 253.248 35.1867 253.248 32.92C253.248 30.6267 253.714 28.6133 254.648 26.88C255.581 25.1467 256.888 23.8133 258.568 22.88C260.248 21.9467 262.181 21.48 264.368 21.48C266.474 21.48 268.354 21.9333 270.008 22.84C271.688 23.7467 272.981 25.04 273.888 26.72C274.821 28.3733 275.288 30.28 275.288 32.44ZM269.488 30.84C269.461 29.4 268.941 28.2533 267.928 27.4C266.914 26.52 265.674 26.08 264.208 26.08C262.821 26.08 261.648 26.5067 260.688 27.36C259.754 28.1867 259.181 29.3467 258.968 30.84H269.488ZM287.855 44.36C286.042 44.36 284.415 44.04 282.975 43.4C281.535 42.7333 280.389 41.84 279.535 40.72C278.709 39.6 278.255 38.36 278.175 37H283.815C283.922 37.8533 284.335 38.56 285.055 39.12C285.802 39.68 286.722 39.96 287.815 39.96C288.882 39.96 289.709 39.7467 290.295 39.32C290.909 38.8933 291.215 38.3467 291.215 37.68C291.215 36.96 290.842 36.4267 290.095 36.08C289.375 35.7067 288.215 35.3067 286.615 34.88C284.962 34.48 283.602 34.0667 282.535 33.64C281.495 33.2133 280.589 32.56 279.815 31.68C279.069 30.8 278.695 29.6133 278.695 28.12C278.695 26.8933 279.042 25.7733 279.735 24.76C280.455 23.7467 281.469 22.9467 282.775 22.36C284.109 21.7733 285.669 21.48 287.455 21.48C290.095 21.48 292.202 22.1467 293.775 23.48C295.349 24.7867 296.215 26.56 296.375 28.8H291.015C290.935 27.92 290.562 27.2267 289.895 26.72C289.255 26.1867 288.389 25.92 287.295 25.92C286.282 25.92 285.495 26.1067 284.935 26.48C284.402 26.8533 284.135 27.3733 284.135 28.04C284.135 28.7867 284.509 29.36 285.255 29.76C286.002 30.1333 287.162 30.52 288.735 30.92C290.335 31.32 291.655 31.7333 292.695 32.16C293.735 32.5867 294.629 33.2533 295.375 34.16C296.149 35.04 296.549 36.2133 296.575 37.68C296.575 38.96 296.215 40.1067 295.495 41.12C294.802 42.1333 293.789 42.9333 292.455 43.52C291.149 44.08 289.615 44.36 287.855 44.36Z" fill="url(#paint0_linear_373_1219)"/>
<rect x="4.70264" y="28.7857" width="37.2979" height="2.92857" fill="url(#paint1_linear_373_1219)"/>
<path d="M7.81055 20L3.90544 27.3214L0.00032568 20L2.23182 30.25L0.00032568 40.5L3.90544 33.1786L7.81055 40.5L5.57906 30.25L7.81055 20Z" fill="#A0FBCD"/>
<rect width="37.2979" height="2.92857" transform="matrix(-1 0 0 1 339.294 28.7857)" fill="url(#paint2_linear_373_1219)"/>
<path d="M336.187 20L340.092 27.3214L343.997 20L341.765 30.25L343.997 40.5L340.092 33.1786L336.187 40.5L338.418 30.25L336.187 20Z" fill="#A0FBCD"/>
<defs>
<linearGradient id="paint0_linear_373_1219" x1="43.998" y1="30" x2="298.998" y2="30" gradientUnits="userSpaceOnUse">
<stop stop-color="#0BB453"/>
<stop offset="1" stop-color="#242243"/>
</linearGradient>
<linearGradient id="paint1_linear_373_1219" x1="5.93922" y1="31.4512" x2="36.797" y2="31.4512" gradientUnits="userSpaceOnUse">
<stop stop-color="#A0FBCD"/>
<stop offset="1" stop-color="#010A04"/>
</linearGradient>
<linearGradient id="paint2_linear_373_1219" x1="1.23658" y1="2.66546" x2="32.0943" y2="2.66546" gradientUnits="userSpaceOnUse">
<stop stop-color="#A0FBCD"/>
<stop offset="1" stop-color="#010A04"/>
</linearGradient>
</defs>
</svg>
