<svg width="337" height="60" viewBox="0 0 337 60" fill="none" xmlns="http://www.w3.org/2000/svg">
<path d="M83.0805 16.08L75.2805 44H68.6805L63.4405 24.12L57.9605 44L51.4005 44.04L43.8805 16.08H49.8805L54.8005 37.76L60.4805 16.08H66.7205L72.0805 37.64L77.0405 16.08H83.0805ZM99.2171 21.52C100.897 21.52 102.39 21.8933 103.697 22.64C105.004 23.36 106.017 24.44 106.737 25.88C107.484 27.2933 107.857 29 107.857 31V44H102.257V31.76C102.257 30 101.817 28.6533 100.937 27.72C100.057 26.76 98.8571 26.28 97.3371 26.28C95.7904 26.28 94.5637 26.76 93.6571 27.72C92.7771 28.6533 92.3371 30 92.3371 31.76V44H86.7371V14.4H92.3371V24.6C93.0571 23.64 94.0171 22.8933 95.2171 22.36C96.4171 21.8 97.7504 21.52 99.2171 21.52ZM123.022 44.36C120.889 44.36 118.969 43.8933 117.262 42.96C115.556 42 114.209 40.6533 113.222 38.92C112.262 37.1867 111.782 35.1867 111.782 32.92C111.782 30.6533 112.276 28.6533 113.262 26.92C114.276 25.1867 115.649 23.8533 117.382 22.92C119.116 21.96 121.049 21.48 123.182 21.48C125.316 21.48 127.249 21.96 128.982 22.92C130.716 23.8533 132.076 25.1867 133.062 26.92C134.076 28.6533 134.582 30.6533 134.582 32.92C134.582 35.1867 134.062 37.1867 133.022 38.92C132.009 40.6533 130.622 42 128.862 42.96C127.129 43.8933 125.182 44.36 123.022 44.36ZM123.022 39.48C124.036 39.48 124.982 39.24 125.862 38.76C126.769 38.2533 127.489 37.5067 128.022 36.52C128.556 35.5333 128.822 34.3333 128.822 32.92C128.822 30.8133 128.262 29.2 127.142 28.08C126.049 26.9333 124.702 26.36 123.102 26.36C121.502 26.36 120.156 26.9333 119.062 28.08C117.996 29.2 117.462 30.8133 117.462 32.92C117.462 35.0267 117.982 36.6533 119.022 37.8C120.089 38.92 121.422 39.48 123.022 39.48ZM185.541 16.08L177.741 44H171.141L165.901 24.12L160.421 44L153.861 44.04L146.341 16.08H152.341L157.261 37.76L162.941 16.08H169.181L174.541 37.64L179.501 16.08H185.541ZM209.798 32.44C209.798 33.24 209.745 33.96 209.638 34.6H193.438C193.571 36.2 194.131 37.4533 195.118 38.36C196.105 39.2667 197.318 39.72 198.758 39.72C200.838 39.72 202.318 38.8267 203.198 37.04H209.238C208.598 39.1733 207.371 40.9333 205.558 42.32C203.745 43.68 201.518 44.36 198.878 44.36C196.745 44.36 194.825 43.8933 193.118 42.96C191.438 42 190.118 40.6533 189.158 38.92C188.225 37.1867 187.758 35.1867 187.758 32.92C187.758 30.6267 188.225 28.6133 189.158 26.88C190.091 25.1467 191.398 23.8133 193.078 22.88C194.758 21.9467 196.691 21.48 198.878 21.48C200.985 21.48 202.865 21.9333 204.518 22.84C206.198 23.7467 207.491 25.04 208.398 26.72C209.331 28.3733 209.798 30.28 209.798 32.44ZM203.998 30.84C203.971 29.4 203.451 28.2533 202.438 27.4C201.425 26.52 200.185 26.08 198.718 26.08C197.331 26.08 196.158 26.5067 195.198 27.36C194.265 28.1867 193.691 29.3467 193.478 30.84H203.998ZM240.537 38.68H229.417L227.577 44H221.697L231.737 16.04H238.257L248.297 44H242.377L240.537 38.68ZM239.017 34.2L234.977 22.52L230.937 34.2H239.017ZM257.65 25.28C258.37 24.1067 259.303 23.1867 260.45 22.52C261.623 21.8533 262.956 21.52 264.45 21.52V27.4H262.97C261.21 27.4 259.876 27.8133 258.97 28.64C258.09 29.4667 257.65 30.9067 257.65 32.96V44H252.05V21.84H257.65V25.28ZM288.821 32.44C288.821 33.24 288.768 33.96 288.661 34.6H272.461C272.595 36.2 273.155 37.4533 274.141 38.36C275.128 39.2667 276.341 39.72 277.781 39.72C279.861 39.72 281.341 38.8267 282.221 37.04H288.261C287.621 39.1733 286.395 40.9333 284.581 42.32C282.768 43.68 280.541 44.36 277.901 44.36C275.768 44.36 273.848 43.8933 272.141 42.96C270.461 42 269.141 40.6533 268.181 38.92C267.248 37.1867 266.781 35.1867 266.781 32.92C266.781 30.6267 267.248 28.6133 268.181 26.88C269.115 25.1467 270.421 23.8133 272.101 22.88C273.781 21.9467 275.715 21.48 277.901 21.48C280.008 21.48 281.888 21.9333 283.541 22.84C285.221 23.7467 286.515 25.04 287.421 26.72C288.355 28.3733 288.821 30.28 288.821 32.44ZM283.021 30.84C282.995 29.4 282.475 28.2533 281.461 27.4C280.448 26.52 279.208 26.08 277.741 26.08C276.355 26.08 275.181 26.5067 274.221 27.36C273.288 28.1867 272.715 29.3467 272.501 30.84H283.021Z" fill="url(#paint0_linear_373_1211)"/>
<rect width="37.2979" height="2.92857" transform="matrix(-1 0 0 1 332.298 28.7857)" fill="url(#paint1_linear_373_1211)"/>
<path d="M329.19 20L333.095 27.3214L337 20L334.769 30.25L337 40.5L333.095 33.1786L329.19 40.5L331.421 30.25L329.19 20Z" fill="#A0FBCD"/>
<rect x="4.70264" y="28.7857" width="37.2979" height="2.92857" fill="url(#paint2_linear_373_1211)"/>
<path d="M7.81055 20L3.90544 27.3214L0.00032568 20L2.23182 30.25L0.00032568 40.5L3.90544 33.1786L7.81055 40.5L5.57906 30.25L7.81055 20Z" fill="#A0FBCD"/>
<defs>
<linearGradient id="paint0_linear_373_1211" x1="43.0005" y1="30" x2="291" y2="30" gradientUnits="userSpaceOnUse">
<stop stop-color="#0BB453"/>
<stop offset="1" stop-color="#242243"/>
</linearGradient>
<linearGradient id="paint1_linear_373_1211" x1="1.23658" y1="2.66546" x2="32.0943" y2="2.66546" gradientUnits="userSpaceOnUse">
<stop stop-color="#A0FBCD"/>
<stop offset="1" stop-color="#010A04"/>
</linearGradient>
<linearGradient id="paint2_linear_373_1211" x1="5.93922" y1="31.4512" x2="36.797" y2="31.4512" gradientUnits="userSpaceOnUse">
<stop stop-color="#A0FBCD"/>
<stop offset="1" stop-color="#010A04"/>
</linearGradient>
</defs>
</svg>
