<svg width="472" height="60" viewBox="0 0 472 60" fill="none" xmlns="http://www.w3.org/2000/svg">
<path d="M92.5839 16.08L84.7839 44H78.1839L72.9439 24.12L67.4639 44L60.9039 44.04L53.3839 16.08H59.3839L64.3039 37.76L69.9839 16.08H76.2239L81.5839 37.64L86.5439 16.08H92.5839ZM108.72 21.52C110.4 21.52 111.894 21.8933 113.2 22.64C114.507 23.36 115.52 24.44 116.24 25.88C116.987 27.2933 117.36 29 117.36 31V44H111.76V31.76C111.76 30 111.32 28.6533 110.44 27.72C109.56 26.76 108.36 26.28 106.84 26.28C105.294 26.28 104.067 26.76 103.16 27.72C102.28 28.6533 101.84 30 101.84 31.76V44H96.2405V14.4H101.84V24.6C102.56 23.64 103.52 22.8933 104.72 22.36C105.92 21.8 107.254 21.52 108.72 21.52ZM143.886 21.84L130.166 54.48H124.206L129.006 43.44L120.126 21.84H126.406L132.126 37.32L137.926 21.84H143.886ZM193.756 16.08L185.956 44H179.356L174.116 24.12L168.636 44L162.076 44.04L154.556 16.08H160.556L165.476 37.76L171.156 16.08H177.396L182.756 37.64L187.716 16.08H193.756ZM207.252 44.36C205.119 44.36 203.199 43.8933 201.492 42.96C199.786 42 198.439 40.6533 197.452 38.92C196.492 37.1867 196.012 35.1867 196.012 32.92C196.012 30.6533 196.506 28.6533 197.492 26.92C198.506 25.1867 199.879 23.8533 201.612 22.92C203.346 21.96 205.279 21.48 207.412 21.48C209.546 21.48 211.479 21.96 213.212 22.92C214.946 23.8533 216.306 25.1867 217.292 26.92C218.306 28.6533 218.812 30.6533 218.812 32.92C218.812 35.1867 218.292 37.1867 217.252 38.92C216.239 40.6533 214.852 42 213.092 42.96C211.359 43.8933 209.412 44.36 207.252 44.36ZM207.252 39.48C208.266 39.48 209.212 39.24 210.092 38.76C210.999 38.2533 211.719 37.5067 212.252 36.52C212.786 35.5333 213.052 34.3333 213.052 32.92C213.052 30.8133 212.492 29.2 211.372 28.08C210.279 26.9333 208.932 26.36 207.332 26.36C205.732 26.36 204.386 26.9333 203.292 28.08C202.226 29.2 201.692 30.8133 201.692 32.92C201.692 35.0267 202.212 36.6533 203.252 37.8C204.319 38.92 205.652 39.48 207.252 39.48ZM228.52 25.28C229.24 24.1067 230.173 23.1867 231.32 22.52C232.493 21.8533 233.827 21.52 235.32 21.52V27.4H233.84C232.08 27.4 230.747 27.8133 229.84 28.64C228.96 29.4667 228.52 30.9067 228.52 32.96V44H222.92V21.84H228.52V25.28ZM252.212 44L244.692 34.56V44H239.092V14.4H244.692V31.24L252.132 21.84H259.412L249.652 32.96L259.492 44H252.212ZM309.303 16.08L301.503 44H294.903L289.663 24.12L284.183 44L277.623 44.04L270.103 16.08H276.103L281.023 37.76L286.703 16.08H292.943L298.303 37.64L303.263 16.08H309.303ZM315.799 19.2C314.813 19.2 313.986 18.8933 313.319 18.28C312.679 17.64 312.359 16.8533 312.359 15.92C312.359 14.9867 312.679 14.2133 313.319 13.6C313.986 12.96 314.813 12.64 315.799 12.64C316.786 12.64 317.599 12.96 318.239 13.6C318.906 14.2133 319.239 14.9867 319.239 15.92C319.239 16.8533 318.906 17.64 318.239 18.28C317.599 18.8933 316.786 19.2 315.799 19.2ZM318.559 21.84V44H312.959V21.84H318.559ZM330.612 26.44V37.16C330.612 37.9067 330.785 38.4533 331.132 38.8C331.505 39.12 332.119 39.28 332.972 39.28H335.572V44H332.052C327.332 44 324.972 41.7067 324.972 37.12V26.44H322.332V21.84H324.972V16.36H330.612V21.84H335.572V26.44H330.612ZM352.08 21.52C353.76 21.52 355.253 21.8933 356.56 22.64C357.867 23.36 358.88 24.44 359.6 25.88C360.347 27.2933 360.72 29 360.72 31V44H355.12V31.76C355.12 30 354.68 28.6533 353.8 27.72C352.92 26.76 351.72 26.28 350.2 26.28C348.653 26.28 347.427 26.76 346.52 27.72C345.64 28.6533 345.2 30 345.2 31.76V44H339.6V14.4H345.2V24.6C345.92 23.64 346.88 22.8933 348.08 22.36C349.28 21.8 350.613 21.52 352.08 21.52ZM381.096 16.08V33.36C381.096 35.2533 381.59 36.7067 382.576 37.72C383.563 38.7067 384.95 39.2 386.736 39.2C388.55 39.2 389.95 38.7067 390.936 37.72C391.923 36.7067 392.416 35.2533 392.416 33.36V16.08H398.056V33.32C398.056 35.6933 397.536 37.7067 396.496 39.36C395.483 40.9867 394.11 42.2133 392.376 43.04C390.67 43.8667 388.763 44.28 386.656 44.28C384.576 44.28 382.683 43.8667 380.976 43.04C379.296 42.2133 377.963 40.9867 376.976 39.36C375.99 37.7067 375.496 35.6933 375.496 33.32V16.08H381.096ZM411.947 44.36C410.134 44.36 408.507 44.04 407.067 43.4C405.627 42.7333 404.48 41.84 403.627 40.72C402.8 39.6 402.347 38.36 402.267 37H407.907C408.014 37.8533 408.427 38.56 409.147 39.12C409.894 39.68 410.814 39.96 411.907 39.96C412.974 39.96 413.8 39.7467 414.387 39.32C415 38.8933 415.307 38.3467 415.307 37.68C415.307 36.96 414.934 36.4267 414.187 36.08C413.467 35.7067 412.307 35.3067 410.707 34.88C409.054 34.48 407.694 34.0667 406.627 33.64C405.587 33.2133 404.68 32.56 403.907 31.68C403.16 30.8 402.787 29.6133 402.787 28.12C402.787 26.8933 403.134 25.7733 403.827 24.76C404.547 23.7467 405.56 22.9467 406.867 22.36C408.2 21.7733 409.76 21.48 411.547 21.48C414.187 21.48 416.294 22.1467 417.867 23.48C419.44 24.7867 420.307 26.56 420.467 28.8H415.107C415.027 27.92 414.654 27.2267 413.987 26.72C413.347 26.1867 412.48 25.92 411.387 25.92C410.374 25.92 409.587 26.1067 409.027 26.48C408.494 26.8533 408.227 27.3733 408.227 28.04C408.227 28.7867 408.6 29.36 409.347 29.76C410.094 30.1333 411.254 30.52 412.827 30.92C414.427 31.32 415.747 31.7333 416.787 32.16C417.827 32.5867 418.72 33.2533 419.467 34.16C420.24 35.04 420.64 36.2133 420.667 37.68C420.667 38.96 420.307 40.1067 419.587 41.12C418.894 42.1333 417.88 42.9333 416.547 43.52C415.24 44.08 413.707 44.36 411.947 44.36Z" fill="url(#paint0_linear_398_1200)"/>
<rect x="4.70215" y="28.7857" width="37.2979" height="2.92857" fill="url(#paint1_linear_398_1200)"/>
<path d="M7.81055 20L3.90544 27.3214L0.00032568 20L2.23182 30.25L0.00032568 40.5L3.90544 33.1786L7.81055 40.5L5.57906 30.25L7.81055 20Z" fill="#A0FBCD"/>
<rect width="37.2979" height="2.92857" transform="matrix(-1 0 0 1 467.239 28.7857)" fill="url(#paint2_linear_398_1200)"/>
<path d="M464.131 20L468.036 27.3214L471.941 20L469.71 30.25L471.941 40.5L468.036 33.1786L464.131 40.5L466.362 30.25L464.131 20Z" fill="#A0FBCD"/>
<defs>
<linearGradient id="paint0_linear_398_1200" x1="42.9727" y1="30" x2="422.973" y2="30" gradientUnits="userSpaceOnUse">
<stop stop-color="#0BB453"/>
<stop offset="1" stop-color="#242243"/>
</linearGradient>
<linearGradient id="paint1_linear_398_1200" x1="5.93873" y1="31.4512" x2="36.7965" y2="31.4512" gradientUnits="userSpaceOnUse">
<stop stop-color="#A0FBCD"/>
<stop offset="1" stop-color="#010A04"/>
</linearGradient>
<linearGradient id="paint2_linear_398_1200" x1="1.23658" y1="2.66546" x2="32.0943" y2="2.66546" gradientUnits="userSpaceOnUse">
<stop stop-color="#A0FBCD"/>
<stop offset="1" stop-color="#010A04"/>
</linearGradient>
</defs>
</svg>
